<?xml version="1.0" encoding="utf-8"?>
<!-- Generator: Adobe Illustrator 16.0.0, SVG Export Plug-In . SVG Version: 6.00 Build 0)  -->
<!DOCTYPE svg PUBLIC "-//W3C//DTD SVG 1.1//EN" "http://www.w3.org/Graphics/SVG/1.1/DTD/svg11.dtd">
<svg version="1.1" id="Layer_1" xmlns="http://www.w3.org/2000/svg" xmlns:xlink="http://www.w3.org/1999/xlink" x="0px" y="0px"
	 width="21.063px" height="21.031px" viewBox="0 0 21.063 21.031" enable-background="new 0 0 21.063 21.031" xml:space="preserve">
<g>
	<path fill-rule="evenodd" clip-rule="evenodd" fill="#FFFFFF" d="M20.845,10.304c-0.017,5.695-4.636,10.293-10.325,10.282
		C4.825,20.574,0.234,15.927,0.259,10.2C0.284,4.592,4.926-0.014,10.543,0C16.246,0.014,20.861,4.629,20.845,10.304z M10.575,1.65
		C5.811,1.633,1.95,5.473,1.909,10.269c-0.041,4.736,3.861,8.66,8.618,8.663c4.802,0.004,8.662-3.853,8.663-8.656
		C19.192,5.532,15.332,1.666,10.575,1.65z"/>
	<path fill-rule="evenodd" clip-rule="evenodd" fill="#FFFFFF" d="M11.337,15.5c-0.526,0-1.04,0-1.578,0c0-2.324,0-4.632,0-6.964
		c0.517,0,1.031,0,1.578,0C11.337,10.851,11.337,13.167,11.337,15.5z"/>
	<path fill-rule="evenodd" clip-rule="evenodd" fill="#FFFFFF" d="M11.778,6.778c-0.003,0.591-0.522,1.037-1.215,1.042
		C9.856,7.826,9.321,7.369,9.325,6.764C9.33,6.173,9.848,5.726,10.54,5.719C11.243,5.711,11.782,6.172,11.778,6.778z"/>
</g>
</svg>
