<?xml version="1.0" encoding="utf-8"?>
<!-- Generator: Adobe Illustrator 16.0.0, SVG Export Plug-In . SVG Version: 6.00 Build 0)  -->
<!DOCTYPE svg PUBLIC "-//W3C//DTD SVG 1.1//EN" "http://www.w3.org/Graphics/SVG/1.1/DTD/svg11.dtd">
<svg version="1.1" id="Layer_1" xmlns="http://www.w3.org/2000/svg" xmlns:xlink="http://www.w3.org/1999/xlink" x="0px" y="0px"
	 width="20px" height="23.5px" viewBox="0 0 20 23.5" enable-background="new 0 0 20 23.5" xml:space="preserve">
<g>
	<path fill-rule="evenodd" clip-rule="evenodd" fill="#FFFFFF" d="M19.47,9.597c0.106,3.327-2.023,7.353-6.22,8.891
		c-4.072,1.492-8.614,0.019-11.081-3.591c-2.432-3.556-2.14-8.331,0.719-11.56c2.89-3.265,7.173-3.951,10.694-2.548
		c-0.47,0.47-0.923,0.937-1.396,1.38c-0.071,0.066-0.252,0.053-0.37,0.025c-4.25-0.994-8.421,1.7-9.264,5.987
		c-0.813,4.137,2.137,8.309,6.289,8.892c4.327,0.607,8.138-2.288,8.711-6.622c0.036-0.278,0.039-0.561,0.059-0.854
		C18.239,9.597,18.842,9.597,19.47,9.597z"/>
	<path fill-rule="evenodd" clip-rule="evenodd" fill="#FFFFFF" d="M9.025,13.277c-1.363-1.365-2.767-2.771-4.151-4.156
		C5.292,8.708,5.727,8.279,6.192,7.82c0.929,0.93,1.895,1.898,2.882,2.888c2.714-2.712,5.417-5.416,8.101-8.1
		c0.442,0.448,0.864,0.875,1.252,1.267C15.321,6.98,12.174,10.127,9.025,13.277z"/>
</g>
</svg>
