<?xml version="1.0" encoding="utf-8"?>
<!-- Generator: Adobe Illustrator 16.0.0, SVG Export Plug-In . SVG Version: 6.00 Build 0)  -->
<!DOCTYPE svg PUBLIC "-//W3C//DTD SVG 1.1//EN" "http://www.w3.org/Graphics/SVG/1.1/DTD/svg11.dtd">
<svg version="1.1" id="Layer_1" xmlns="http://www.w3.org/2000/svg" xmlns:xlink="http://www.w3.org/1999/xlink" x="0px" y="0px"
	 width="20px" height="24px" viewBox="0 0 20 24" enable-background="new 0 0 20 24" xml:space="preserve">
<g>
	<path fill-rule="evenodd" clip-rule="evenodd" fill="#FFFFFF" d="M9.995,19.681c-0.688-0.838-1.366-1.639-2.02-2.459
		C6.673,15.589,5.448,13.902,4.39,12.1c-0.528-0.9-0.992-1.829-1.364-2.809C2.493,7.888,2.515,6.477,3.005,5.083
		c0.983-2.792,2.953-4.485,5.867-4.994c3.755-0.657,7.47,1.882,8.328,5.594c0.359,1.544,0.127,2.987-0.52,4.404
		c-0.752,1.65-1.717,3.17-2.758,4.645c-1.152,1.633-2.396,3.193-3.707,4.702C10.153,19.506,10.089,19.575,9.995,19.681z
		 M10.006,17.822c0.075-0.087,0.128-0.143,0.175-0.202c0.867-1.109,1.759-2.201,2.596-3.332c1.072-1.453,2.051-2.969,2.785-4.629
		c0.451-1.021,0.701-2.066,0.531-3.206c-0.428-2.87-2.91-5.121-5.809-5.226c-2.568-0.093-4.885,1.341-5.9,3.676
		c-0.598,1.374-0.736,2.78-0.144,4.195c0.279,0.664,0.575,1.327,0.921,1.958c1.126,2.049,2.523,3.911,3.986,5.729
		C9.424,17.128,9.709,17.464,10.006,17.822z"/>
	<path fill-rule="evenodd" clip-rule="evenodd" fill="#FFFFFF" d="M6.323,7.362c0.003-2.035,1.659-3.682,3.696-3.679
		c2.034,0.002,3.684,1.662,3.68,3.696c-0.004,2.042-1.665,3.686-3.716,3.68C7.965,11.053,6.32,9.392,6.323,7.362z M7.552,7.365
		C7.547,8.716,8.648,9.825,10,9.83c1.356,0.005,2.465-1.092,2.47-2.443c0.006-1.356-1.089-2.468-2.438-2.474
		C8.666,4.906,7.558,6.002,7.552,7.365z"/>
</g>
</svg>
