<?xml version="1.0" encoding="utf-8"?>
<!-- Generator: Adobe Illustrator 16.0.0, SVG Export Plug-In . SVG Version: 6.00 Build 0)  -->
<!DOCTYPE svg PUBLIC "-//W3C//DTD SVG 1.1//EN" "http://www.w3.org/Graphics/SVG/1.1/DTD/svg11.dtd">
<svg version="1.1" id="Layer_1" xmlns="http://www.w3.org/2000/svg" xmlns:xlink="http://www.w3.org/1999/xlink" x="0px" y="0px"
	 width="20px" height="24px" viewBox="0 0 20 24" enable-background="new 0 0 20 24" xml:space="preserve">
<g>
	<path fill-rule="evenodd" clip-rule="evenodd" fill="#FFFFFF" d="M3.517,19.96c-0.763,0-1.527,0.005-2.291,0
		c-0.827-0.006-1.213-0.38-1.216-1.19c-0.006-1.542-0.026-3.085,0.018-4.626c0.009-0.336,0.174-0.749,0.408-0.985
		C4.66,8.899,8.905,4.663,13.148,0.423c0.548-0.549,1.118-0.563,1.632-0.047c1.572,1.578,3.145,3.156,4.715,4.735
		c0.63,0.631,0.632,1.129,0.004,1.757c-4.207,4.208-8.418,8.414-12.62,12.629c-0.32,0.32-0.668,0.479-1.119,0.468
		C5.012,19.949,4.264,19.96,3.517,19.96z M17.537,6.082c-1.242-1.252-2.411-2.433-3.585-3.617c-0.025,0.018-0.067,0.041-0.1,0.072
		c-3.875,3.875-7.75,7.75-11.623,11.628c-0.083,0.083-0.187,0.2-0.188,0.303c-0.013,1.146-0.008,2.292-0.008,3.48
		c1.072,0,2.096-0.011,3.12,0.007c0.322,0.004,0.548-0.101,0.774-0.326c3.76-3.773,7.525-7.536,11.292-11.3
		C17.319,6.23,17.44,6.155,17.537,6.082z"/>
</g>
</svg>
