<?xml version="1.0" encoding="utf-8"?>
<!-- Generator: Adobe Illustrator 16.0.0, SVG Export Plug-In . SVG Version: 6.00 Build 0)  -->
<!DOCTYPE svg PUBLIC "-//W3C//DTD SVG 1.1//EN" "http://www.w3.org/Graphics/SVG/1.1/DTD/svg11.dtd">
<svg version="1.1" id="Layer_1" xmlns="http://www.w3.org/2000/svg" xmlns:xlink="http://www.w3.org/1999/xlink" x="0px" y="0px"
	 width="20px" height="24px" viewBox="0 0 20 24" enable-background="new 0 0 20 24" xml:space="preserve">
<g>
	<path fill="#FFFFFF" d="M18.502,10.005c-1.566-0.001-3.136,0-4.755,0c0-0.562-0.036-1.08,0.008-1.594
		c0.207-2.456,1.17-4.439,3.524-5.532c0.085-0.039,0.187-0.156,0.188-0.239c0.015-0.854,0.009-1.707,0.009-2.642
		c-0.541,0.224-1.053,0.381-1.511,0.634c-3.146,1.731-4.608,4.496-4.7,7.997c-0.076,2.889-0.017,5.782-0.015,8.676
		c0,0.93,0.483,1.416,1.411,1.418c1.958,0,3.916,0,5.873,0c0.951-0.002,1.432-0.483,1.432-1.44c0.002-1.933,0.001-3.863,0-5.795
		C19.967,10.472,19.506,10.005,18.502,10.005z M18.494,16.88h-5.253V11.73h5.253V16.88z"/>
	<path fill="#FFFFFF" d="M7.43,10.006c-0.868-0.005-1.737-0.001-2.606-0.001c-0.749,0-1.498,0-2.279,0
		c0-0.616-0.048-1.178,0.008-1.729c0.245-2.405,1.219-4.347,3.538-5.403c0.075-0.035,0.169-0.14,0.17-0.212
		c0.012-0.86,0.006-1.721,0.006-2.626C5.955,0.142,5.695,0.22,5.444,0.319c-3.139,1.234-5.342,4.502-5.39,8.099
		c-0.04,3.006-0.013,6.016-0.009,9.021c0.002,0.752,0.525,1.276,1.275,1.279c2.049,0.008,4.098,0.008,6.146,0
		c0.772-0.003,1.288-0.523,1.291-1.302c0.007-2.036,0.007-4.071,0.001-6.106C8.756,10.518,8.235,10.01,7.43,10.006z M7.233,16.88
		H1.98V11.73h5.253V16.88z"/>
</g>
</svg>
